<svg width="79" height="79" viewBox="0 0 79 79" fill="none" xmlns="http://www.w3.org/2000/svg">
<path d="M71.5162 32.016C68.1065 32.016 65.2793 34.3445 64.3646 37.421H51.2255C50.8931 35.6744 50.2278 34.095 49.2296 32.6807L58.5432 23.3671C59.6244 23.9495 60.7886 24.3648 62.1187 24.3648C66.2766 24.3648 69.6026 21.0388 69.6026 16.8809C69.6026 12.7229 66.2766 9.39691 62.1187 9.39691C57.9608 9.39691 54.6347 12.7229 54.6347 16.8809C54.6347 18.2115 54.9671 19.3758 55.6324 20.4564L46.3194 29.7706C44.9058 28.7729 43.3257 28.1076 41.5791 27.7746V14.6356C44.6558 13.7208 46.9841 10.8936 46.9841 7.48396C46.9841 3.32604 43.6581 0 39.5001 0C35.3422 0 32.0162 3.32604 32.0162 7.48396C32.0162 10.8936 34.3446 13.7208 37.4212 14.6356V27.7746C35.6746 28.107 34.0951 28.7724 32.6809 29.7706L23.3673 20.457C23.9496 19.3757 24.365 18.2116 24.365 16.8815C24.365 12.7235 21.0389 9.3975 16.881 9.3975C12.7231 9.3975 9.39705 12.7235 9.39705 16.8815C9.39705 21.0394 12.7231 24.3654 16.881 24.3654C18.2117 24.3654 19.3759 24.033 20.4565 23.3677L29.7701 32.6813C28.7724 34.0949 28.1071 35.675 27.7742 37.4216L14.6356 37.4211C13.7208 34.3443 10.8936 32.016 7.48396 32.016C3.32604 32.016 0 35.3421 0 39.5C0 43.6579 3.32604 46.984 7.48396 46.984C10.8936 46.984 13.7208 44.6555 14.6356 41.579H27.7746C28.107 43.3256 28.7724 44.905 29.7706 46.3193L20.457 55.6329C19.3757 55.0505 18.2116 54.6352 16.8815 54.6352C12.7235 54.6352 9.3975 57.9612 9.3975 62.1191C9.3975 66.2771 12.7235 69.6031 16.8815 69.6031C21.0394 69.6031 24.3654 66.2771 24.3654 62.1191C24.3654 60.7885 24.033 59.6242 23.3677 58.5436L32.6813 49.23C34.0949 50.2278 35.675 50.893 37.4216 51.226V64.365C34.3443 65.2792 32.016 68.1064 32.016 71.516C32.016 75.674 35.3421 79 39.5 79C43.6579 79 46.984 75.674 46.984 71.516C46.984 68.1064 44.6555 65.2792 41.579 64.3644V51.2254C43.3256 50.893 44.9886 50.2277 46.3193 49.2294L55.6329 58.543C55.0505 59.6243 54.6352 60.7885 54.6352 62.1186C54.6352 66.2765 57.9612 69.6025 62.1191 69.6025C66.277 69.6025 69.6031 66.2765 69.6031 62.1186C69.6031 57.9606 66.277 54.6346 62.1191 54.6346C60.7885 54.6346 59.6242 54.967 58.5436 55.6323L49.2294 46.3193C50.2271 44.9057 50.8924 43.3256 51.2254 41.579H64.3644C65.2792 44.6557 68.1064 46.984 71.516 46.984C75.674 46.984 79 43.6579 79 39.5C79 35.3421 75.674 32.016 71.516 32.016L71.5162 32.016Z" fill="#A64AF7"/>
</svg>
