<svg width="98" height="83" viewBox="0 0 98 83" fill="none" xmlns="http://www.w3.org/2000/svg">
<path d="M97.9111 33.9962L91.5433 59.8487C89.7749 67.9939 83.7612 74.3685 75.9788 77.2009L60.7681 82.8672C59.3535 83.2214 57.938 82.8672 56.8766 81.8045L45.9106 69.7642C40.2507 63.7438 38.1284 55.2443 39.8969 47.1008L45.9106 21.2484C46.2644 19.8322 47.679 18.4151 49.4482 18.4151C65.7204 18.4151 81.2849 22.3109 95.7896 29.3934C97.558 30.8096 98.2649 32.58 97.9118 33.997L97.9111 33.9962ZM53.6922 51.3485C51.9237 58.0767 56.1683 64.8057 62.8898 66.2218C69.6105 67.9922 76.332 63.7429 77.7465 57.0139L53.6922 51.3485ZM81.9918 40.0166C79.1617 39.3081 76.3319 41.0793 75.6241 43.9124C74.9164 46.7456 76.6856 49.5786 79.5155 50.2872C82.3455 50.9958 85.1754 49.2245 85.8832 46.3914C86.5902 43.5574 84.8217 40.7244 81.9918 40.0166V40.0166ZM57.938 34.3504C55.108 33.6419 52.2781 35.4131 51.5703 38.2462C50.8625 41.0793 52.6318 43.9124 55.4618 44.621C58.2918 45.3295 61.1217 43.5583 61.8295 40.7252C62.5364 37.8912 60.768 35.0582 57.938 34.3504V34.3504ZM34.9436 65.8677L27.5152 64.0973C19.3791 61.9727 13.0116 55.9521 10.1823 48.1613L0.277642 19.8311C-0.430042 18.4149 0.277643 16.6437 1.69225 15.5819C15.4883 6.72824 30.3453 1.41622 46.618 0C48.3864 0 49.8018 0.708472 50.1556 2.47882L53.6933 12.3945H49.4488C44.4965 12.3945 40.2512 15.5819 39.1904 20.5397L35.2989 37.1842C34.9451 37.1842 34.5912 37.1842 34.2374 37.5384C27.8697 39.663 24.3328 46.7462 26.809 53.4745L32.4689 51.3498C32.1143 55.9527 32.822 60.9105 34.9442 65.8682L34.9436 65.8677ZM25.039 30.8084C23.9775 27.9752 21.1475 26.5592 18.3182 27.621C15.4882 28.3295 13.719 31.5168 14.7806 34.35C15.8421 37.1832 18.672 38.5992 21.5013 37.5374C24.3314 36.4747 25.7466 33.6416 25.039 30.8084Z" fill="#A64AF7"/>
</svg>
