<svg width="80" height="80" viewBox="0 0 80 80" fill="none" xmlns="http://www.w3.org/2000/svg">
<path d="M40 0C17.9079 0 0 17.9079 0 40C0 62.0921 17.9079 80 40 80C62.0921 80 80 62.0921 80 40C80 17.9079 62.0921 0 40 0ZM40 72C22.3556 72 8 57.6448 8 40C8 22.3552 22.3552 8 40 8C57.6448 8 72 22.3552 72 40C72 57.6448 57.6448 72 40 72Z" fill="#A64AF7"/>
<path d="M20 60L48.8889 48.8889L60 20L31.1111 31.1111L20 60ZM40 34.8C42.8721 34.8 45.2003 37.1283 45.2003 39.9997C45.2003 42.8711 42.8721 45.1994 40 45.1994C37.1279 45.1994 34.7997 42.8711 34.7997 39.9997C34.7997 37.1283 37.1279 34.8 40 34.8V34.8Z" fill="#A64AF7"/>
</svg>
