<svg width="78" height="78" viewBox="0 0 78 78" fill="none" xmlns="http://www.w3.org/2000/svg">
<path d="M61.4673 51.2749C61.4673 54.2265 59.074 56.6199 56.1223 56.6199C53.1707 56.6199 50.7773 54.2265 50.7773 51.2749C50.7773 48.3233 53.1707 45.9299 56.1223 45.9299C59.074 45.9299 61.4673 48.3233 61.4673 51.2749Z" fill="#A64AF7"/>
<path d="M37.4171 51.2749C40.3646 51.2749 42.7621 48.8774 42.7621 45.9299V38.5149C41.6609 37.6142 38.2964 35.24 33.4084 35.24C28.5234 35.24 25.1594 37.6118 24.0547 38.5161V45.9299C24.0547 48.8774 26.4521 51.2749 29.3997 51.2749H37.4171ZM26.7272 45.9299V40.585H40.0896V45.9299C40.0896 47.404 38.8893 48.6024 37.4171 48.6024H29.3997C27.9256 48.6024 26.7272 47.404 26.7272 45.9299Z" fill="#A64AF7"/>
<path d="M29.3984 43.2576H37.4159V45.9301H29.3984V43.2576Z" fill="#A64AF7"/>
<path d="M57.4584 40.585H45.4322V45.9299C45.4322 50.3514 41.8363 53.9474 37.4148 53.9474H29.3973C24.9758 53.9474 21.3799 50.3514 21.3799 45.9299V40.585H9.35369C4.19717 40.585 0 44.7821 0 49.9386C0 56.0024 0.971165 61.9929 2.88903 67.7435L5.12063 74.4397C5.8311 76.5692 7.81694 78.0003 10.0617 78.0003C12.2676 78.0003 14.2428 76.6014 14.9748 74.5195L17.4779 67.3999C16.5879 66.2641 16.0349 64.8514 16.0349 63.3017C16.0349 59.6175 19.0319 56.6205 22.7161 56.6205C25.9415 56.6205 28.6421 58.9202 29.2612 61.9654H37.55C38.1698 58.9202 40.8691 56.6205 44.0952 56.6205C47.7794 56.6205 50.7764 59.6175 50.7764 63.3017C50.7764 64.8514 50.2234 66.264 49.3334 67.3987L51.8365 74.5183C52.569 76.6015 54.5424 78.0003 56.7502 78.0003C58.9961 78.0003 60.9808 76.5692 61.6918 74.4391L63.9234 67.7429C65.8389 61.9935 66.8119 56.003 66.8119 49.9396C66.8119 44.7831 62.6147 40.5859 57.4582 40.5859L57.4584 40.585ZM18.7074 55.2836H14.6987V59.2923H6.68121V55.2836H2.67248V47.2662H6.68121V43.2574H14.6987V47.2662H18.7074V55.2836ZM56.1221 59.2923C51.7006 59.2923 48.1047 55.6964 48.1047 51.2749C48.1047 46.8534 51.7006 43.2574 56.1221 43.2574C60.5436 43.2574 64.1396 46.8534 64.1396 51.2749C64.1396 55.6964 60.5436 59.2923 56.1221 59.2923Z" fill="#A64AF7"/>
<path d="M12.025 45.9299H9.35247V49.9387H5.34375V52.6111H9.35247V56.6199H12.025V52.6111H16.0337V49.9387H12.025V45.9299Z" fill="#A64AF7"/>
<path d="M32.0705 16.5327C32.0705 13.6478 32.9993 10.9819 34.5599 8.79441L27.4486 0.497803H17.372C15.1618 0.497803 13.3633 2.29631 13.3633 4.50653V27.2226H37.4492C34.1928 24.7839 32.0708 20.9047 32.0708 16.5327H32.0705ZM18.7081 24.5501H16.0356V21.8777H18.7081V24.5501ZM18.7081 5.84277H16.0356V3.17029H18.7081V5.84277Z" fill="#A64AF7"/>
<path d="M44.0947 59.2925C41.8844 59.2925 40.0859 61.091 40.0859 63.3012C40.0859 65.5114 41.8844 67.3099 44.0947 67.3099C46.3049 67.3099 48.1034 65.5114 48.1034 63.3012C48.1034 61.091 46.3049 59.2925 44.0947 59.2925ZM44.0947 64.6374C43.3556 64.6374 42.7584 64.0403 42.7584 63.3012C42.7584 62.5621 43.3556 61.965 44.0947 61.965C44.8338 61.965 45.4309 62.5621 45.4309 63.3012C45.4309 64.0403 44.8338 64.6374 44.0947 64.6374Z" fill="#A64AF7"/>
<path d="M69.485 36.5762C69.485 37.3141 68.8867 37.9125 68.1487 37.9125C67.4108 37.9125 66.8125 37.3141 66.8125 36.5762C66.8125 35.8383 67.4108 35.24 68.1487 35.24C68.8867 35.24 69.485 35.8383 69.485 36.5762Z" fill="#A64AF7"/>
<path d="M40.0859 15.1965H50.7759V17.869H40.0859V15.1965Z" fill="#A64AF7"/>
<path d="M45.4344 3.17028C48.9474 3.17028 52.1394 4.54411 54.5261 6.76851L59.9003 0.497803H30.9688L36.3429 6.76851C38.7296 4.54409 41.9217 3.17028 45.4347 3.17028H45.4344Z" fill="#A64AF7"/>
<path d="M73.491 0.497803H63.4143L56.3031 8.79441C57.8637 10.9819 58.7925 13.6478 58.7925 16.5327C58.7925 20.9047 56.6705 24.7839 53.4141 27.2226H77.5V4.50653C77.5 2.29631 75.7015 0.497803 73.4913 0.497803H73.491ZM74.8272 24.5501H72.1547V21.8777H74.8272V24.5501ZM74.8272 5.84277H72.1547V3.17029H74.8272V5.84277Z" fill="#A64AF7"/>
<path d="M16.5511 37.9125H21.3776V37.3595L21.7689 36.9682C21.9497 36.7874 26.2507 32.5676 33.4038 32.5676C40.5551 32.5676 44.8579 36.7875 45.0388 36.9676L45.4301 37.3595V37.9125H48.1026V32.5675H61.465V38.614C63.924 39.4868 66.0189 41.126 67.4489 43.2574H69.6388C71.3663 43.2574 72.8953 42.1562 73.4429 40.5158L76.9816 29.895H13.8789L16.5511 37.9125ZM68.1468 32.5675C70.357 32.5675 72.1555 34.366 72.1555 36.5762C72.1555 38.7865 70.357 40.585 68.1468 40.585C65.9366 40.585 64.1381 38.7865 64.1381 36.5762C64.1381 34.366 65.9366 32.5675 68.1468 32.5675Z" fill="#A64AF7"/>
<path d="M22.7158 59.2925C20.5055 59.2925 18.707 61.091 18.707 63.3012C18.707 65.5114 20.5055 67.3099 22.7158 67.3099C24.926 67.3099 26.7245 65.5114 26.7245 63.3012C26.7245 61.091 24.926 59.2925 22.7158 59.2925ZM22.7158 64.6374C21.9767 64.6374 21.3795 64.0403 21.3795 63.3012C21.3795 62.5621 21.9767 61.965 22.7158 61.965C23.4549 61.965 24.052 62.5621 24.052 63.3012C24.052 64.0403 23.4549 64.6374 22.7158 64.6374Z" fill="#A64AF7"/>
<path d="M45.4321 5.84277C39.5377 5.84277 34.7422 10.6383 34.7422 16.5327C34.7422 22.4271 39.5377 27.2226 45.4321 27.2226C51.3265 27.2226 56.122 22.4271 56.122 16.5327C56.122 10.6383 51.3265 5.84277 45.4321 5.84277ZM53.4496 20.5414H37.4147V12.524H53.4496V20.5414Z" fill="#A64AF7"/>
<path d="M58.7948 37.992V35.2407H50.7773V37.9132H57.4585C57.9101 37.9132 58.3551 37.9424 58.7948 37.9919V37.992Z" fill="#A64AF7"/>
</svg>
