<svg width="22" height="30" viewBox="0 0 22 30" fill="none" xmlns="http://www.w3.org/2000/svg">
<path d="M21 12.4545C21 21.3636 11 29 11 29C11 29 1 21.3636 1 12.4545C1 9.41661 2.05357 6.5031 3.92893 4.35496C5.8043 2.20681 8.34784 1 11 1C13.6522 1 16.1957 2.20681 18.0711 4.35496C19.9464 6.5031 21 9.41661 21 12.4545Z" stroke="#A64AF7" stroke-width="2" stroke-linecap="round" stroke-linejoin="round"/>
<path d="M11 16C12.6569 16 14 14.433 14 12.5C14 10.567 12.6569 9 11 9C9.34315 9 8 10.567 8 12.5C8 14.433 9.34315 16 11 16Z" stroke="#A64AF7" stroke-width="2" stroke-linecap="round" stroke-linejoin="round"/>
</svg>
