<svg width="80" height="80" viewBox="0 0 80 80" fill="none" xmlns="http://www.w3.org/2000/svg">
<path d="M3.99752 0C1.80463 0 0 1.80417 0 3.99752V15.9998H79.9992V3.99752C79.9992 1.80463 78.1975 0 76.0046 0H3.99752ZM9.33081 5.33572C11.5243 5.33572 13.3385 7.13685 13.3385 9.33035C13.3385 11.5239 11.5243 13.3381 9.33081 13.3381C7.1373 13.3381 5.33618 11.5239 5.33618 9.33035C5.33618 7.13685 7.1373 5.33572 9.33081 5.33572V5.33572ZM19.9998 5.33572C22.1933 5.33572 23.9973 7.13685 23.9973 9.33035C23.9973 11.5239 22.1932 13.3381 19.9998 13.3381C17.8065 13.3381 16.0052 11.5239 16.0052 9.33035C16.0052 7.13685 17.8063 5.33572 19.9998 5.33572V5.33572ZM30.6688 5.33572C32.8623 5.33572 34.6663 7.13685 34.6663 9.33035C34.6663 11.5239 32.8622 13.3381 30.6688 13.3381C28.4755 13.3381 26.6635 11.5239 26.6635 9.33035C26.6635 7.13685 28.4755 5.33572 30.6688 5.33572V5.33572ZM46.5986 5.33572H73.3381C74.0708 5.3381 74.6637 5.93095 74.6661 6.66368V11.997C74.6691 12.7333 74.0744 13.3356 73.3381 13.338L46.6641 13.3386C45.9278 13.3362 45.3331 12.7339 45.3361 11.9976V6.66427C45.3349 5.97856 45.8528 5.40417 46.5992 5.33632L46.5986 5.33572ZM0.000913775 18.6665V76.0054C0.000913775 78.1983 1.80509 80 3.99844 80H76.0054C78.1983 80 80 78.1983 80 76.0054V18.6665H0.000913775ZM40.0005 23.9973C53.2397 23.9973 63.9973 34.7663 63.9973 48.0047C63.9973 61.2439 53.239 71.9984 40.0005 71.9984C26.7621 71.9984 16.0069 61.2425 16.0069 48.0047C16.0069 34.7655 26.7627 23.9973 40.0005 23.9973V23.9973ZM40.0005 26.6664C34.3428 26.6664 28.9168 28.914 24.9156 32.9146C20.915 36.9158 18.6674 42.3418 18.6674 47.9995C18.6674 53.6572 20.915 59.0833 24.9156 63.0845C28.9168 67.0851 34.3428 69.3327 40.0005 69.3327C45.6582 69.3327 51.0843 67.0851 55.0855 63.0845C59.0861 59.0833 61.3337 53.6572 61.3337 47.9995C61.3337 42.3418 59.0861 36.9158 55.0855 32.9146C51.0843 28.914 45.6582 26.6664 40.0005 26.6664V26.6664ZM40.0005 29.3331C50.2939 29.3331 58.6609 37.7115 58.6609 48.0056C58.6609 58.299 50.2932 66.6645 40.0005 66.6645C29.7079 66.6645 21.3279 58.2992 21.3279 48.0056C21.3279 37.7123 29.7064 29.3331 40.0005 29.3331ZM40.0005 31.9997C31.1781 31.9997 23.9976 39.1794 23.9976 48.0026C23.9976 56.8258 31.1773 63.9963 40.0005 63.9963C48.8238 63.9963 55.9943 56.8244 55.9943 48.0026C55.9943 39.1807 48.8224 31.9997 40.0005 31.9997ZM39.9827 34.6479C40.7309 34.6378 41.3374 35.2461 41.3291 35.9943V38.8539C43.6201 39.4521 45.3368 41.5283 45.3368 43.9973C45.3207 44.7217 44.7285 45.3014 44.0035 45.3014C43.2779 45.3014 42.6863 44.7217 42.6702 43.9973C42.6702 42.5086 41.4892 41.3306 40.0011 41.3306C38.5124 41.3306 37.3345 42.5086 37.3345 43.9973C37.3345 45.4859 38.5124 46.6639 40.0011 46.6639C42.9309 46.6639 45.3368 49.0698 45.3368 51.9996C45.3368 54.4686 43.6195 56.5473 41.3291 57.1455V60.002C41.3291 61.78 38.6624 61.78 38.6624 60.002V57.1424C36.3774 56.5407 34.6678 54.4645 34.6678 51.999L34.6672 51.9996C34.6833 51.2746 35.2755 50.6955 36.0005 50.6955C36.7255 50.6955 37.3178 51.2746 37.3339 51.9996C37.3339 53.4883 38.5118 54.6663 40.0005 54.6663C41.4892 54.6663 42.6696 53.4883 42.6696 51.9996C42.6696 50.511 41.4886 49.333 40.0005 49.333C37.0707 49.333 34.6672 46.9271 34.6672 43.9973C34.6672 41.5324 36.3768 39.4586 38.6618 38.8569V35.9951C38.6535 35.2588 39.2458 34.657 39.9821 34.6486L39.9827 34.6479Z" fill="#A64AF7"/>
</svg>
