<svg width="83" height="80" viewBox="0 0 83 80" fill="none" xmlns="http://www.w3.org/2000/svg">
<path d="M60.7497 53.4293C63.4515 49.3328 65.0207 44.4518 65.0207 39.222C65.0207 25.0148 53.4284 13.4226 39.2213 13.4226C25.0142 13.4226 13.4219 25.0149 13.4219 39.222C13.4219 53.4292 25.0142 65.0215 39.2213 65.0215C44.4512 65.0215 49.4191 63.4529 53.4286 60.7505L68.6816 77.8339C68.8561 78.0084 69.03 78.1822 69.2045 78.3567C71.9063 80.7102 76.003 80.5357 78.3565 77.8339C80.71 75.1321 80.5355 71.0354 77.8336 68.6819L60.7497 53.4293ZM39.2212 23.6205C43.0564 23.6205 46.1941 26.7583 46.1941 30.5935C46.1941 34.4287 43.0564 37.5665 39.2212 37.5665C35.3859 37.5665 32.2482 34.4287 32.2482 30.5935C32.2482 26.7583 35.3859 23.6205 39.2212 23.6205ZM50.2032 50.2044C50.2032 51.2501 49.3313 52.0351 48.2857 52.0351H30.1563C29.1106 52.0351 28.2388 51.1632 28.2388 50.2044V47.3281C28.2388 43.7544 29.9819 40.5296 32.5968 38.5251C34.4269 40.0067 36.6933 40.8785 39.2208 40.8785C41.7483 40.8785 44.0148 40.0067 45.7579 38.5251C46.1938 38.8734 46.5422 39.2224 46.8911 39.5708C48.8957 41.5753 50.1159 44.2771 50.1159 47.3281V50.2044L50.2032 50.2044Z" fill="#A64AF7"/>
<path d="M81.0592 38.9606H78.4442C78.2697 17.432 60.7507 0 39.2221 0C17.6064 0 0 17.6064 0 39.2221C0 60.8378 17.6064 78.4442 39.2221 78.4442C40.4423 78.4442 41.4881 77.3985 41.4881 76.1782C41.4881 74.9574 40.4424 73.9986 39.2221 73.9986C20.0469 73.9986 4.44517 58.3969 4.44517 39.2216C4.44517 20.0464 20.0469 4.4447 39.2221 4.4447C58.3102 4.4447 73.8247 19.8722 73.9119 38.9602H71.2969C69.9022 38.9602 69.1179 40.5287 69.9022 41.662L74.783 48.3735C75.4804 49.3323 76.875 49.3323 77.5725 48.3735L82.4533 41.662C83.3251 40.5293 82.4539 38.9608 81.0592 38.9608L81.0592 38.9606Z" fill="#A64AF7"/>
</svg>
