<svg width="42" height="39" viewBox="0 0 42 39" fill="none" xmlns="http://www.w3.org/2000/svg">
<path d="M2.26305 11.1895L34.041 11.1895C35.6017 11.1895 37.0985 10.6516 38.2022 9.69422C39.3058 8.73684 39.9258 7.43835 39.9258 6.08441L38.2022 3.02139L34.041 2.00038L2.26305 2.00039L2.26305 9.69422" stroke="#A64AF7" stroke-width="3" stroke-linecap="round" stroke-linejoin="round"/>
<path d="M34.041 36.7148L2.26305 36.7148L2.26305 2.00059L34.041 2.00059C35.6017 2.00059 37.0985 2.45776 38.2022 3.27154C39.3058 4.08531 39.9258 5.18902 39.9258 6.33987L39.9258 32.3756C39.9258 33.5264 39.3058 34.6301 38.2022 35.4439C37.0985 36.2577 35.6017 36.7148 34.041 36.7148V36.7148Z" stroke="#A64AF7" stroke-width="3" stroke-linecap="round" stroke-linejoin="round"/>
</svg>
