<svg width="40" height="40" viewBox="0 0 40 40" fill="none" xmlns="http://www.w3.org/2000/svg">
<path d="M19.9992 39.2563C30.8396 39.2563 39.6274 30.4685 39.6274 19.6281C39.6274 8.78782 30.8396 0 19.9992 0C9.15891 0 0.371094 8.78782 0.371094 19.6281C0.371094 30.4685 9.15891 39.2563 19.9992 39.2563Z" fill="url(#paint0_linear_173_356)"/>
<path d="M19.9992 39.2563C30.8396 39.2563 39.6274 30.4685 39.6274 19.6281C39.6274 8.78782 30.8396 0 19.9992 0C9.15891 0 0.371094 8.78782 0.371094 19.6281C0.371094 30.4685 9.15891 39.2563 19.9992 39.2563Z" fill="url(#paint1_linear_173_356)"/>
<path fill-rule="evenodd" clip-rule="evenodd" d="M14.2288 7.125H25.7744C29.4835 7.125 32.5345 10.1803 32.5345 13.8851V25.3713C32.5345 29.0804 29.4792 32.1314 25.7744 32.1314H14.2288C10.5197 32.1314 7.46875 29.076 7.46875 25.3713V13.8851C7.46875 10.1759 10.5241 7.125 14.2288 7.125V7.125ZM26.732 11.4897C27.1112 11.4949 27.4735 11.6479 27.7417 11.9161C28.0098 12.1842 28.1628 12.5465 28.168 12.9257C28.1628 13.3049 28.0098 13.6672 27.7417 13.9354C27.4735 14.2036 27.1112 14.3565 26.732 14.3617V14.3617C26.5427 14.3643 26.3548 14.3289 26.1794 14.2577C26.004 14.1864 25.8447 14.0807 25.7108 13.9469C25.577 13.813 25.4713 13.6537 25.4001 13.4783C25.3288 13.3029 25.2934 13.115 25.296 12.9257V12.9257C25.2934 12.7364 25.3288 12.5485 25.4001 12.3731C25.4713 12.1977 25.577 12.0384 25.7108 11.9046C25.8447 11.7707 26.004 11.665 26.1794 11.5938C26.3548 11.5225 26.5427 11.4871 26.732 11.4897V11.4897ZM19.9719 12.8079H20.0322C23.7413 12.8079 26.8525 15.919 26.8525 19.6282C26.8525 23.3967 23.7413 26.4485 20.0322 26.4485H19.9719C16.2628 26.4502 13.2153 23.3949 13.2153 19.6282C13.2153 15.919 16.2706 12.8079 19.9754 12.8079H19.9719ZM19.9719 15.1412H20.0322C22.4851 15.1412 24.5191 17.1752 24.5191 19.6282C24.5191 22.1405 22.4851 24.1745 20.0322 24.1745H19.9719C17.519 24.1745 15.485 22.1405 15.485 19.6282C15.485 17.1752 17.519 15.1412 19.9719 15.1412V15.1412ZM14.2891 9.27855H25.715C26.952 9.28017 28.1378 9.77227 29.0125 10.6469C29.8872 11.5216 30.3793 12.7075 30.3809 13.9444V25.3154C30.3793 26.5524 29.8872 27.7382 29.0125 28.6129C28.1378 29.4876 26.952 29.9797 25.715 29.9813H14.2882C13.0512 29.9797 11.8654 29.4876 10.9907 28.6129C10.116 27.7382 9.62392 26.5524 9.62231 25.3154V13.9444C9.62392 12.7075 10.116 11.5216 10.9907 10.6469C11.8654 9.77227 13.0512 9.28017 14.2882 9.27855H14.2891Z" fill="white"/>
<defs>
<linearGradient id="paint0_linear_173_356" x1="19.9992" y1="0" x2="19.9992" y2="39.2563" gradientUnits="userSpaceOnUse">
<stop stop-color="#231F20"/>
<stop offset="1" stop-color="#231F20" stop-opacity="0"/>
</linearGradient>
<linearGradient id="paint1_linear_173_356" x1="19.9992" y1="0" x2="19.9992" y2="39.2563" gradientUnits="userSpaceOnUse">
<stop stop-color="#17063C"/>
<stop offset="1" stop-color="#1C0120"/>
</linearGradient>
</defs>
</svg>
