<?xml version="1.0" encoding="UTF-8" standalone="no" ?>
<!DOCTYPE svg PUBLIC "-//W3C//DTD SVG 1.1//EN" "http://www.w3.org/Graphics/SVG/1.1/DTD/svg11.dtd">
<svg xmlns="http://www.w3.org/2000/svg" xmlns:xlink="http://www.w3.org/1999/xlink" version="1.1" width="40.25630000000001" height="40.25630000000001" viewBox="251.54016460674154 147.76027696629217 40.25630000000001 40.25630000000001" xml:space="preserve">
<desc>Created with Fabric.js 4.6.0</desc>
<defs>
</defs>
<g transform="matrix(1 0 0 1 271.67 167.89)" id="ECEIsqJnwuDmTcJSk0iKk"  >
<linearGradient id="SVGID_3" gradientUnits="userSpaceOnUse" gradientTransform="matrix(1 0 0 1 0 0)"  x1="20.3156" y1="0" x2="20.3156" y2="39.2563">
<stop offset="0%" style="stop-color:rgb(23,6,60);stop-opacity: 1"/>
<stop offset="100%" style="stop-color:rgb(28,1,32);stop-opacity: 1"/>
</linearGradient>
<path style="stroke: none; stroke-width: 1; stroke-dasharray: none; stroke-linecap: butt; stroke-dashoffset: 0; stroke-linejoin: miter; stroke-miterlimit: 4; fill: url(#SVGID_3); fill-rule: nonzero; opacity: 1;" vector-effect="non-scaling-stroke"  transform=" translate(-20.32, -19.63)" d="M 20.3156 39.2563 C 31.156 39.2563 39.9438 30.4685 39.9438 19.6281 C 39.9438 8.78782 31.156 0 20.3156 0 C 9.47532 0 0.6875 8.78782 0.6875 19.6281 C 0.6875 30.4685 9.47532 39.2563 20.3156 39.2563 Z" stroke-linecap="round" />
</g>
<g transform="matrix(1.26 0 0 1.26 264.01 166.33)" id="LchJVNfbS9RYwyKhP21l_"  >
<path style="stroke: none; stroke-width: 1; stroke-dasharray: none; stroke-linecap: butt; stroke-dashoffset: 0; stroke-linejoin: miter; stroke-miterlimit: 4; fill: rgb(255,255,255); fill-rule: nonzero; opacity: 1;" vector-effect="non-scaling-stroke"  transform=" translate(-5.96, -12)" d="M 8.92 2.44 C 8.73407565950585 2.1000453516584403 8.377475190582853 1.8886255990411804 7.99 1.8886255990411804 C 7.602524809417147 1.8886255990411804 7.245924340494149 2.1000453516584408 7.06 2.4400000000000004 L 0.1 15.07 C -0.020953449473921637 15.37330573353441 0.013795014134070416 15.71656092118756 0.19308022114852721 15.989472847420677 C 0.372365428162984 16.262384773653793 0.6736025999703815 16.430574386577405 1.0000000000000004 16.44 L 5.7 16.44 L 5.7 21.220000000000002 C 5.705406861646062 21.7092763321548 6.100723667845202 22.10459313835394 6.589999999999999 22.110000000000003 L 9.33 22.110000000000003 C 9.817078455473826 22.099407609580506 10.209407609580504 21.70707845547383 10.22 21.220000000000002 L 10.22 16.44 L 8.92 16.44 C 8.41624613461851 16.42183248905739 7.996484904910806 16.048244994617537 7.92 15.55 C 7.906736314730096 15.385853540018509 7.934216580966904 15.220971942597659 8 15.07 L 11.89 8.07 L 11.89 8.07 Z" stroke-linecap="round" />
</g>
<g transform="matrix(1.26 0 0 1.26 279.28 166.33)" id="AEsZk5WqHrH94EvnPGpMa"  >
<path style="stroke: none; stroke-width: 1; stroke-dasharray: none; stroke-linecap: butt; stroke-dashoffset: 0; stroke-linejoin: miter; stroke-miterlimit: 4; fill: rgb(255,255,255); fill-rule: nonzero; opacity: 1;" vector-effect="non-scaling-stroke"  transform=" translate(-18.05, -12)" d="M 15.08 2.44 C 15.26592434049415 2.10004535165844 15.622524809417147 1.8886255990411795 16.01 1.8886255990411795 C 16.397475190582853 1.8886255990411795 16.75407565950585 2.10004535165844 16.94 2.44 L 23.94 15.07 C 24.063421208492894 15.379839276007568 24.02425169732137 15.73081561708597 23.835560718125627 16.005822682509553 C 23.646869738929883 16.280829747933137 23.333496223756956 16.443666115463135 23 16.44 L 18.39 16.44 L 18.39 21.220000000000002 C 18.38459313835394 21.7092763321548 17.989276332154798 22.10459313835394 17.5 22.110000000000003 L 14.59 22.110000000000003 C 14.100723667845202 22.10459313835394 13.705406861646061 21.7092763321548 13.7 21.220000000000002 L 13.7 16.44 L 15 16.44 C 15.526532400228058 16.45114784988661 15.97986650962596 16.070518267467616 16.06 15.55 C 16.073263685269904 15.385853540018509 16.045783419033093 15.220971942597659 15.979999999999999 15.07 L 12.08 8 L 12.08 8 Z" stroke-linecap="round" />
</g>
</svg>