<svg width="40" height="41" viewBox="0 0 40 41" fill="none" xmlns="http://www.w3.org/2000/svg">
<path d="M19.6281 40.2163C30.4685 40.2163 39.2563 31.4284 39.2563 20.5881C39.2563 9.74778 30.4685 0.959961 19.6281 0.959961C8.78782 0.959961 0 9.74778 0 20.5881C0 31.4284 8.78782 40.2163 19.6281 40.2163Z" fill="url(#paint0_linear_173_365)"/>
<path d="M19.6281 40.2163C30.4685 40.2163 39.2563 31.4284 39.2563 20.5881C39.2563 9.74778 30.4685 0.959961 19.6281 0.959961C8.78782 0.959961 0 9.74778 0 20.5881C0 31.4284 8.78782 40.2163 19.6281 40.2163Z" fill="url(#paint1_linear_173_365)"/>
<path fill-rule="evenodd" clip-rule="evenodd" d="M7.9527 20.103C13.3519 17.8386 19.8832 14.6165 25.5443 12.4394C30.7697 10.5233 30.6824 11.0427 29.8985 16.2708C29.2875 20.4513 28.5891 24.6309 27.896 28.8115C27.6341 30.814 26.5866 31.8598 24.4129 30.6403L17.6206 25.8504C16.6603 25.0648 16.9222 24.4537 17.7079 23.6733L23.9782 17.7513C25.6368 16.0927 24.8512 15.4868 22.9307 16.791L14.3077 22.6284C13.0856 23.5013 11.7823 23.5013 10.3891 23.0649L7.42806 22.0173C5.51195 21.319 6.99159 20.5333 7.95183 20.1012L7.9527 20.103Z" fill="white"/>
<defs>
<linearGradient id="paint0_linear_173_365" x1="19.6281" y1="0.959961" x2="19.6281" y2="40.2163" gradientUnits="userSpaceOnUse">
<stop stop-color="#231F20"/>
<stop offset="1" stop-color="#231F20" stop-opacity="0"/>
</linearGradient>
<linearGradient id="paint1_linear_173_365" x1="19.6281" y1="0.959961" x2="19.6281" y2="40.2163" gradientUnits="userSpaceOnUse">
<stop stop-color="#17063C"/>
<stop offset="1" stop-color="#1C0120"/>
</linearGradient>
</defs>
</svg>
