<svg width="40" height="40" viewBox="0 0 40 40" fill="none" xmlns="http://www.w3.org/2000/svg">
<path d="M19.6867 39.2563C30.5271 39.2563 39.3149 30.4685 39.3149 19.6281C39.3149 8.78782 30.5271 0 19.6867 0C8.84641 0 0.0585938 8.78782 0.0585938 19.6281C0.0585938 30.4685 8.84641 39.2563 19.6867 39.2563Z" fill="url(#paint0_linear_173_362)"/>
<path d="M19.6867 39.2563C30.5271 39.2563 39.3149 30.4685 39.3149 19.6281C39.3149 8.78782 30.5271 0 19.6867 0C8.84641 0 0.0585938 8.78782 0.0585938 19.6281C0.0585938 30.4685 8.84641 39.2563 19.6867 39.2563Z" fill="url(#paint1_linear_173_362)"/>
<path fill-rule="evenodd" clip-rule="evenodd" d="M19.9066 16.1388C18.9393 11.0452 25.0639 8.01521 28.6744 11.6868C28.6744 11.6868 30.2859 11.2355 31.7044 10.3329C31.2892 11.5035 30.495 12.502 29.4478 13.1699C29.4478 13.1699 31.3823 12.9081 32.2203 12.3965C32.2203 12.3965 31.3823 14.1372 29.8346 14.7823C30.6726 26.4518 18.1004 33.5436 7.91406 27.7411C7.91406 27.7411 12.9431 28.003 15.0722 25.5492C15.0722 25.5492 11.9776 25.811 10.4299 22.0679C10.4299 22.0679 11.59 22.5192 12.751 21.9387C12.751 21.9387 9.14055 21.3582 8.81843 17.0388C8.81843 17.0388 9.97858 17.9415 11.2688 17.6193C11.2688 17.6193 7.27157 15.2336 9.52813 10.9143C9.52813 10.9143 13.7837 16.3265 19.9083 16.1362L19.9066 16.1388Z" fill="white"/>
<defs>
<linearGradient id="paint0_linear_173_362" x1="19.6867" y1="0" x2="19.6867" y2="39.2563" gradientUnits="userSpaceOnUse">
<stop stop-color="#231F20"/>
<stop offset="1" stop-color="#231F20" stop-opacity="0"/>
</linearGradient>
<linearGradient id="paint1_linear_173_362" x1="19.6867" y1="0" x2="19.6867" y2="39.2563" gradientUnits="userSpaceOnUse">
<stop stop-color="#17063C"/>
<stop offset="1" stop-color="#1C0120"/>
</linearGradient>
</defs>
</svg>
