<svg width="41" height="41" viewBox="0 0 41 41" fill="none" xmlns="http://www.w3.org/2000/svg">
<path d="M20.3742 40.2163C31.2146 40.2163 40.0024 31.4284 40.0024 20.5881C40.0024 9.74778 31.2146 0.959961 20.3742 0.959961C9.53391 0.959961 0.746094 9.74778 0.746094 20.5881C0.746094 31.4284 9.53391 40.2163 20.3742 40.2163Z" fill="url(#paint0_linear_173_359)"/>
<path d="M20.3742 40.2163C31.2146 40.2163 40.0024 31.4284 40.0024 20.5881C40.0024 9.74778 31.2146 0.959961 20.3742 0.959961C9.53391 0.959961 0.746094 9.74778 0.746094 20.5881C0.746094 31.4284 9.53391 40.2163 20.3742 40.2163Z" fill="url(#paint1_linear_173_359)"/>
<path fill-rule="evenodd" clip-rule="evenodd" d="M15.9617 14.9158C16.6549 14.4749 17.0966 14.79 17.348 15.4832L17.9782 17.1217C17.9782 17.1217 18.4191 18.0042 17.2851 18.8868C17.0957 19.0125 17.0957 19.0125 17.1594 19.3276C17.4117 20.0836 18.4199 22.3532 21.6341 24.1183C21.9493 24.3078 22.0121 24.3078 22.3273 24.0555L23.1469 23.2358C23.7144 22.7312 24.0295 22.5427 24.5332 22.9206C24.9112 23.1729 25.2892 23.4881 25.668 23.7403C26.046 24.0555 26.6763 24.4335 26.046 25.1903L25.4786 25.8834C24.6589 26.8917 23.9658 26.9545 22.8947 26.7031C18.7979 25.632 15.7723 22.7321 14.4489 18.6354C14.0081 17.0597 14.6384 15.7363 15.9617 14.9166V14.9158ZM20.3736 8.17139C23.6667 8.17139 26.825 9.47958 29.1536 11.8082C31.4822 14.1368 32.7904 17.295 32.7904 20.5881C32.7904 23.8813 31.4822 27.0395 29.1536 29.3681C26.825 31.6967 23.6667 33.0049 20.3736 33.0049C18.4828 33.0049 16.7177 32.6269 15.142 31.8701L8.52426 33.0049L9.40681 26.4543L9.34396 26.3286C8.36555 24.4337 7.89055 22.3192 7.96452 20.1879C8.0385 18.0566 8.65897 15.9801 9.76641 14.1576C10.8738 12.3351 12.4311 10.8278 14.2887 9.78027C16.1463 8.73278 18.2419 8.18027 20.3745 8.17575L20.3736 8.17139ZM12.5581 30.2324L14.3232 29.9173L15.3943 29.7279C16.9192 30.5632 18.6314 30.997 20.3701 30.9884C22.4273 30.9893 24.4385 30.38 26.1494 29.2378C27.8603 28.0955 29.194 26.4715 29.9818 24.5712C30.7696 22.6708 30.9762 20.5796 30.5754 18.5618C30.1746 16.5441 29.1844 14.6905 27.7301 13.2356C26.2758 11.7807 24.4226 10.7897 22.4051 10.388C20.3875 9.9864 18.2961 10.1921 16.3955 10.9791C14.4948 11.7662 12.8703 13.0992 11.7273 14.8096C10.5843 16.52 9.97422 18.531 9.97422 20.5881C9.97422 22.6684 10.6045 24.5592 11.6127 26.1977L11.487 27.1431L11.2347 29.0339L11.0453 30.4838L12.5581 30.2324Z" fill="white"/>
<defs>
<linearGradient id="paint0_linear_173_359" x1="20.3742" y1="0.959961" x2="20.3742" y2="40.2163" gradientUnits="userSpaceOnUse">
<stop stop-color="#231F20"/>
<stop offset="1" stop-color="#231F20" stop-opacity="0"/>
</linearGradient>
<linearGradient id="paint1_linear_173_359" x1="20.3742" y1="0.959961" x2="20.3742" y2="40.2163" gradientUnits="userSpaceOnUse">
<stop stop-color="#17063C"/>
<stop offset="1" stop-color="#1C0120"/>
</linearGradient>
</defs>
</svg>
